<svg width="7" height="10" viewBox="0 0 7 10" fill="none" xmlns="http://www.w3.org/2000/svg">
<path fill-rule="evenodd" clip-rule="evenodd" d="M3.57866 5.25002C2.65532 5.25002 1.90837 4.50221 1.90837 3.57965C1.90837 2.65757 2.65532 1.90911 3.57866 1.90911C4.50167 1.90911 5.24927 2.65757 5.24927 3.57965C5.24927 4.50221 4.50167 5.25002 3.57866 5.25002ZM3.48394 0C1.54227 0 0 1.71472 0 3.82977C0 6.71305 2.95078 9.69248 2.95078 9.69248C3.34777 10.0863 3.59437 10.1184 4.01646 9.69248C4.01646 9.69248 7 6.71305 7 3.82977C7 1.71472 5.42544 0 3.48394 0" fill="#F55A5A"/>
</svg>
